<svg width="256" height="256" viewBox="0 0 256 256" fill="none" xmlns="http://www.w3.org/2000/svg">
<path d="M232.384 131.351C231.174 132.051 229.965 132.624 228.883 133.452C226.527 135.234 224.3 137.335 221.817 138.926C220.289 139.944 218.38 140.454 216.597 140.963C214.497 141.536 212.396 141.981 210.232 142.363C208.131 142.682 205.967 142.745 203.802 143C203.421 143.064 202.975 143.127 202.657 143.382C202.402 143.573 202.147 143.955 202.02 144.273C201.575 145.928 201.256 147.647 200.683 149.302C200.11 151.02 199.41 152.675 198.583 154.267C197.373 156.431 196.1 158.532 194.636 160.505C193.427 162.096 191.772 163.37 190.308 164.77C188.143 166.807 185.597 168.271 182.733 169.226C180.759 169.862 178.786 170.372 176.749 170.754C174.776 171.136 172.739 171.454 170.702 171.581C169.492 171.645 168.219 171.39 167.01 171.136C164.845 170.69 162.617 170.372 160.644 169.544C157.589 168.335 154.788 166.489 152.305 164.261C150.587 162.733 148.868 161.142 147.022 159.487C146.958 159.805 146.895 159.932 146.895 160.059C147.022 166.043 146.64 171.963 145.367 177.883C144.794 180.493 144.094 182.975 143.139 185.458C141.993 188.323 140.911 191.251 139.001 193.733C136.582 196.916 134.163 200.162 130.153 201.563C128.689 202.072 127.225 202.136 125.761 201.626C123.087 200.735 121.05 198.889 119.204 196.852C116.849 194.242 114.94 191.314 113.539 188.068C112.266 185.14 111.057 182.148 110.675 178.901C110.547 177.947 110.293 176.992 110.102 176.101C109.783 174.637 109.211 173.236 109.083 171.772C108.829 168.653 108.701 165.47 108.638 162.351C108.638 161.269 108.829 160.187 108.892 158.85C108.319 159.359 107.874 159.614 107.492 159.996C106.473 161.014 105.519 162.096 104.436 163.115C103.1 164.388 101.763 165.788 100.235 166.807C97.3706 168.653 94.3788 170.435 90.8778 170.881C88.9681 171.136 86.9948 171.708 85.0851 171.708C82.8572 171.708 80.6293 171.263 78.4013 170.817C76.3007 170.372 74.1364 169.99 72.1631 169.162C66.2431 166.68 61.66 162.478 58.1589 157.131C56.3129 154.331 55.1671 151.211 54.085 148.092C53.7667 147.201 53.4484 146.246 53.4484 145.291C53.3847 143.7 52.9392 143.127 51.3478 143.064C50.3929 143 49.4381 143.127 48.4833 142.936C46.0007 142.554 43.5818 142.045 41.1629 141.663C38.553 141.281 36.1341 140.39 33.9699 138.99C31.7419 137.525 29.8323 135.679 27.668 134.152C25.822 132.879 23.785 131.796 21.8117 130.651C20.7932 130.078 19.7747 129.505 18.5016 128.805C18.5016 130.332 18.5016 131.606 18.5016 132.879C18.5016 155.349 18.5016 177.883 18.5016 200.353C18.5016 201.372 18.5016 202.327 18.5652 203.345C18.5652 203.663 18.7562 204.109 19.0108 204.173C19.902 204.555 20.7932 204.873 21.6844 205.128C25.0581 206.21 28.4318 207.228 31.7419 208.374C34.2881 209.201 36.7707 210.093 39.2533 210.92C41.9268 211.811 44.664 212.575 47.3375 213.466C50.5203 214.485 53.6394 215.631 56.7585 216.649C60.3232 217.859 63.9515 218.941 67.5162 220.087C71.5265 221.423 75.5368 222.887 79.5471 224.224C84.194 225.752 88.7772 227.216 93.424 228.744C97.5616 230.08 101.763 231.545 105.9 232.881C110.038 234.218 114.176 235.491 118.313 236.892C120.923 237.719 123.469 238.738 126.079 239.565C126.779 239.756 127.607 239.883 128.244 239.756C130.471 239.183 132.699 238.419 134.864 237.719C136.455 237.21 138.046 236.701 139.638 236.191C141.929 235.427 144.221 234.664 146.513 233.9C148.168 233.391 149.823 232.881 151.478 232.308C153.26 231.735 154.979 231.099 156.761 230.526C158.862 229.826 161.026 229.189 163.19 228.489C165.673 227.662 168.092 226.707 170.574 225.879C173.693 224.861 176.94 223.906 180.059 222.887C182.287 222.124 184.515 221.296 186.806 220.532C189.353 219.705 191.899 218.877 194.445 218.05C196.737 217.286 199.028 216.522 201.32 215.758C203.484 215.058 205.712 214.294 207.876 213.594C210.232 212.83 212.587 212.002 215.006 211.238C216.915 210.602 218.825 210.093 220.735 209.456C223.918 208.438 227.037 207.292 230.219 206.273C231.875 205.764 233.53 205.318 235.185 204.746C236.076 204.427 236.649 203.982 236.649 202.836C236.649 179.347 236.649 155.795 236.649 132.306C236.649 131.351 236.649 130.332 236.649 129.187C234.994 129.823 233.657 130.587 232.384 131.351Z" fill="white"/>
<path d="M255.3 78.8989C255.236 78.7079 255.045 78.4533 254.854 78.326C253.072 76.4163 250.653 76.2254 248.298 75.9708C245.688 75.6525 243.078 75.7161 240.468 75.7161C239.704 75.7161 239.004 75.9071 238.24 75.9708C235.949 76.1617 233.593 76.2254 231.302 76.5437C228.883 76.8619 226.528 77.3712 224.172 77.8804C221.371 78.4533 218.507 79.0899 215.706 79.7901C212.969 80.4903 210.295 81.3178 207.622 82.2726C204.248 83.4184 200.938 84.5642 197.628 85.9647C192.79 87.938 188.016 90.0386 183.242 92.2029C178.85 94.1762 174.521 96.2768 170.192 98.4411C165.609 100.733 161.09 103.088 156.57 105.507C151.732 108.117 146.895 110.854 142.057 113.527C141.484 113.846 141.229 114.291 141.802 114.928C142.757 116.074 143.712 117.219 144.539 118.429C144.921 119.002 145.24 119.193 145.876 119.065C147.531 118.684 149.186 118.365 150.841 118.047C152.114 117.792 153.387 117.474 154.661 117.156C156.252 116.71 157.843 116.201 159.498 115.819C161.79 115.246 164.145 114.864 166.437 114.228C169.11 113.527 171.848 112.827 174.457 111.936C178.149 110.663 181.778 109.263 185.406 107.798C188.271 106.653 191.071 105.252 194 104.361C196.991 103.47 200.111 102.833 203.23 102.451C205.776 102.069 208.322 102.006 210.868 102.069C213.287 102.133 215.77 102.388 218.125 102.833C221.053 103.406 223.981 104.043 226.782 104.998C231.174 106.525 235.439 108.499 240.086 109.326C241.868 109.644 243.714 109.835 245.497 110.026C245.751 110.026 246.197 110.026 246.324 109.835C246.961 109.072 247.597 108.244 248.043 107.353C249.634 104.234 251.289 101.115 252.626 97.9319C253.708 95.513 254.536 92.9031 255.172 90.3569C255.682 88.3836 255.745 86.2829 256 83.9277C255.873 82.2726 255.618 80.5539 255.3 78.8989Z" fill="white"/>
<path d="M30.4689 104.17C32.8878 103.47 35.3067 102.897 37.7892 102.579C41.3539 102.133 44.9186 101.815 48.4833 101.879C53.1302 101.942 57.6497 102.833 62.0419 104.488C65.543 105.825 69.044 107.289 72.5451 108.69C74.9003 109.581 77.1919 110.472 79.5472 111.3C81.3932 111.936 83.2392 112.509 85.1489 113.018C86.4856 113.4 87.886 113.719 89.2865 114.1C90.9415 114.482 92.5329 114.864 94.1879 115.246C96.4159 115.819 98.5802 116.392 100.808 116.965C102.654 117.411 104.436 117.92 106.282 118.302C107.556 118.556 108.829 118.747 110.165 118.875C110.484 118.938 110.929 118.684 111.184 118.429C112.075 117.347 112.839 116.201 113.794 115.119C114.239 114.61 114.176 114.355 113.666 114.037C112.648 113.337 111.757 112.445 110.675 111.809C106.792 109.581 102.845 107.353 98.8348 105.252C94.0606 102.706 89.2865 100.287 84.385 97.932C78.5924 95.1311 72.736 92.394 66.8161 89.7204C63.1241 88.0654 59.3684 86.5377 55.6127 85.0099C53.1302 83.9914 50.584 83.0366 48.0377 82.1454C45.6188 81.3179 43.1999 80.6177 40.781 79.9175C38.8077 79.3446 36.8344 78.7717 34.7974 78.3261C32.9514 77.8805 31.0418 77.6896 29.1957 77.3076C27.4771 76.9893 25.822 76.6074 24.1033 76.4164C20.9842 76.0345 17.8651 75.7799 14.746 75.5889C13.2819 75.4616 11.8178 75.5253 10.3537 75.6526C8.44409 75.8435 6.53442 76.0982 4.62476 76.4164C3.47896 76.6074 2.33317 76.9257 1.37833 77.5622C0.74178 78.0078 0.168882 79.0263 0.105226 79.8538C-0.0857401 81.5725 0.0415711 83.2912 0.0415711 85.0099H0.105226C0.105226 86.3467 -0.0857398 87.6835 0.168882 88.9566C0.550814 90.8662 1.12371 92.7122 1.69661 94.5582C2.20585 96.2133 2.7151 97.9956 3.47896 99.5234C5.00669 102.579 6.66173 105.571 8.38043 108.499C8.76236 109.135 9.52623 109.772 10.2264 110.027C10.7993 110.217 11.5632 109.899 12.2634 109.708C15.9554 108.753 19.6474 107.799 23.2758 106.716C25.7584 105.953 28.05 104.87 30.4689 104.17Z" fill="white"/>
<path d="M34.3519 131.607C37.5346 134.344 41.0357 136.254 45.3006 136.572C46.5101 136.636 47.6558 136.636 48.8653 136.636C49.0563 136.636 49.3109 136.7 49.5019 136.7C50.2657 136.827 50.9659 137.018 51.7298 137.081C55.7401 137.209 59.7504 137.272 63.697 137.4C64.8428 137.4 66.0523 137.463 67.1981 137.591C69.8716 137.845 72.5451 138.355 75.2186 138.418C78.5287 138.546 81.7751 138.418 85.0852 138.227C87.1222 138.1 89.1592 137.782 91.1325 137.463C92.9785 137.145 94.8245 136.636 96.6069 136.127C98.3892 135.681 100.108 135.172 101.827 134.599C104.118 133.835 106.346 133.071 108.574 132.244C109.083 132.053 109.847 131.798 109.402 131.161C108.319 129.506 108.319 127.66 108.256 125.814C108.256 124.923 107.81 124.478 107.11 124.287C106.282 124.032 105.455 123.905 104.627 123.65C102.336 123.077 100.044 122.441 97.689 121.868C95.5247 121.295 93.3604 120.849 91.1961 120.276C89.5411 119.894 87.8224 119.449 86.1674 119.003C84.4487 118.558 82.73 118.239 81.0113 117.794C79.2289 117.285 77.3829 116.775 75.6006 116.139C73.5636 115.439 71.5903 114.738 69.617 113.911C66.4342 112.574 63.3151 111.046 60.0686 109.837C57.8407 109.009 55.5491 108.436 53.1939 107.927C50.9659 107.482 48.6743 107.163 46.4464 107.1C44.664 107.036 42.8817 107.291 41.0993 107.545C39.126 107.8 37.1527 108.055 35.243 108.627C32.8241 109.391 30.4689 110.41 28.05 111.365C23.6578 113.02 19.2019 114.484 14.3004 115.439C14.6187 115.948 14.746 116.521 15.1279 116.903C19.0109 120.977 23.4668 124.223 28.2409 127.215C30.4052 128.424 32.4422 129.952 34.3519 131.607Z" fill="white"/>
<path d="M240.277 115.182C238.558 114.864 236.84 114.609 235.185 114.1C231.62 112.891 228.119 111.363 224.554 110.153C221.753 109.199 218.953 108.244 216.088 107.607C213.987 107.162 211.759 107.162 209.341 106.971C207.367 107.225 205.139 107.289 202.975 107.735C200.811 108.117 198.583 108.689 196.546 109.453C193.745 110.472 191.008 111.681 188.271 112.891C186.425 113.655 184.706 114.546 182.86 115.182C180.759 115.946 178.531 116.583 176.367 117.219C174.203 117.856 172.102 118.492 169.938 119.002C168.283 119.384 166.564 119.574 164.909 120.02C162.045 120.72 159.18 121.548 156.316 122.312C153.706 122.948 151.16 123.648 148.55 124.221C147.531 124.476 147.213 125.24 147.404 126.004C147.786 127.595 147.149 128.995 146.704 130.332C146.322 131.669 146.194 131.796 147.595 132.306C147.913 132.433 148.231 132.624 148.613 132.751C151.86 133.77 155.106 134.915 158.353 135.807C161.217 136.634 164.082 137.398 166.946 137.844C169.811 138.289 172.739 138.353 175.667 138.48C177.131 138.544 178.595 138.416 180.059 138.353C182.478 138.226 184.897 138.098 187.316 137.907C189.862 137.716 192.345 137.207 194.891 137.08C199.028 136.889 203.166 136.889 207.367 136.698C209.277 136.634 211.187 136.38 213.096 136.125C215.451 135.743 217.552 134.661 219.462 133.26C222.072 131.287 224.554 129.186 227.164 127.213C228.628 126.131 230.22 125.24 231.684 124.158C233.912 122.439 236.012 120.529 238.113 118.747C239.004 117.983 239.959 117.219 240.786 116.328C241.168 115.819 241.232 115.31 240.277 115.182Z" fill="white"/>
<path d="M139.129 123.077C138.683 120.595 137.219 118.749 135.437 117.157C133.527 115.439 131.044 114.866 128.562 114.738C125.061 114.547 121.878 115.502 119.332 118.049C117.74 119.64 116.722 121.613 116.404 123.778C116.085 126.005 116.022 128.297 116.849 130.589C117.422 132.244 117.677 134.026 118.122 135.745C118.377 136.572 118.759 137.272 119.841 137.209C120.096 137.209 120.35 137.336 120.605 137.4C122.515 137.782 124.424 138.355 126.398 138.482C128.371 138.609 130.344 138.355 132.254 138.036C133.718 137.845 135.182 137.272 136.646 136.891C137.792 136.572 137.983 135.745 138.047 134.726C138.11 133.708 138.365 132.689 138.556 131.671C138.938 129.952 139.447 128.233 139.893 126.515C139.638 125.242 139.32 124.159 139.129 123.077Z" fill="white"/>
<path d="M72.9906 151.913C71.6539 149.876 70.8263 147.584 70.5717 145.166C70.4444 143.956 69.9988 143.51 68.7257 143.447C66.4341 143.32 64.2062 143.192 61.9146 143.001C60.9598 142.938 60.6415 143.129 60.5778 144.147C60.4505 146.375 61.2144 148.348 61.9782 150.385C63.1877 153.632 65.352 156.242 67.7072 158.66C70.1261 161.27 73.0543 163.18 76.3644 164.326C78.274 164.962 80.2473 165.663 82.2207 165.79C84.3213 165.917 86.4219 166.044 88.5862 165.472C91.0688 164.771 93.424 163.88 95.461 162.352C99.153 159.552 102.527 156.433 105.646 152.677C104.5 152.104 103.418 151.595 102.336 151.149C102.081 151.022 101.572 151.149 101.317 151.34C100.299 152.231 99.4076 153.25 98.3891 154.205C95.9066 156.496 93.1057 158.151 89.732 158.915C86.4219 159.679 83.3665 159.17 80.311 158.151C77.2555 156.942 74.8366 154.65 72.9906 151.913Z" fill="white"/>
<path d="M176.176 69.6708C175.476 70.3073 175.094 71.0712 175.476 72.026C175.921 73.0445 177.195 73.9993 178.213 74.1903C178.913 73.8084 179.741 73.6174 180.314 73.0445C181.841 71.7077 183.242 70.2436 184.706 68.8432C188.716 65.2149 192.79 61.6502 196.8 57.9582C199.92 55.0937 202.975 52.1019 206.031 49.1737C209.277 46.1182 212.587 43.1901 215.77 40.1346C216.152 39.8164 216.406 39.1162 216.343 38.6069C216.215 36.6972 213.86 35.4241 212.269 36.5063C210.741 37.5248 209.341 38.8615 207.94 40.1346C204.948 42.8718 202.02 45.609 199.028 48.3462C194.827 52.1655 190.562 55.9848 186.361 59.8042C182.987 63.1142 179.614 66.4243 176.176 69.6708Z" fill="white"/>
<path d="M48.738 48.3445C52.812 52.1002 56.8859 55.8558 60.9599 59.6115C64.5882 62.9852 68.1529 66.359 71.7813 69.7964C72.3542 70.3693 72.8634 70.9422 73.5 71.5151C74.2638 72.2789 75.0914 73.0428 75.9189 73.6794C77.001 74.4432 78.9107 73.8067 79.9292 72.4699C80.4384 71.8333 80.1201 70.4966 79.2926 69.6691C76.9374 67.3775 74.6458 65.0859 72.2905 62.7943C68.0256 58.7203 63.697 54.71 59.3685 50.6998C54.8489 46.5622 50.4567 42.3609 46.0008 38.2233C44.9824 37.2685 43.9002 36.1227 42.3725 36.25C41.2267 36.1863 39.9536 36.7592 39.6353 37.4594C39.1897 38.4143 39.4443 39.6874 40.3355 40.5149C43.1363 43.1248 45.9372 45.7346 48.738 48.3445Z" fill="white"/>
<path d="M201.957 71.515C200.938 72.0243 199.856 72.4699 198.901 73.1064C198.01 73.6157 197.692 74.8251 198.137 75.8436C198.519 76.7348 199.219 77.3713 200.365 77.435C200.874 77.3713 201.511 77.3713 202.02 77.1804C205.203 75.7799 208.322 74.3159 211.441 72.8518C213.987 71.6424 216.534 70.3692 219.08 69.2234C223.472 67.1865 227.928 65.2132 232.32 63.2398C237.222 60.9482 242.123 58.6566 247.025 56.3651C247.916 55.9831 248.807 54.3917 248.552 53.6915C248.17 52.6094 245.942 51.2726 244.988 51.6546C243.078 52.4821 241.232 53.2459 239.322 54.1371C235.439 55.9831 231.556 57.8291 227.673 59.6751C222.454 62.094 217.297 64.5129 212.078 66.9318C208.704 68.3959 205.33 69.9873 201.957 71.515Z" fill="white"/>
<path d="M125.252 61.5217C125.252 63.495 126.016 64.4498 127.925 64.8317C129.135 65.0864 130.663 64.1952 130.79 62.9857C130.981 61.458 130.917 59.9303 130.917 58.4026C130.917 48.8542 130.917 39.3696 130.981 29.8213C130.981 26.5748 130.917 23.3284 131.235 20.1457C131.49 17.8541 129.835 15.5625 127.225 16.0717C126.461 16.199 125.252 17.3448 125.252 18.1087C125.252 18.9999 125.252 19.891 125.252 20.7185C125.252 27.2114 125.252 33.7679 125.252 40.2608C125.252 47.3902 125.252 54.4559 125.252 61.5217Z" fill="white"/>
<path d="M9.71724 56.6838C11.6906 57.5749 13.6639 58.5298 15.6372 59.4209C19.2656 61.076 22.9576 62.731 26.5859 64.4497C31.2964 66.6777 36.0069 68.9056 40.7174 71.1335C43.9638 72.6613 47.1466 74.3163 50.393 75.7804C51.7935 76.4169 53.2575 76.9898 54.7853 77.3081C56.3767 77.69 57.8407 76.5442 57.8407 75.6531C57.968 73.8071 56.8859 73.2342 55.8674 72.7249C51.9844 70.8153 48.0378 68.9693 44.1548 67.1232C39.8899 65.0863 35.5613 63.0493 31.2964 61.0123C26.5223 58.7844 21.7481 56.6201 16.974 54.4558C14.8097 53.501 12.5817 52.6098 10.4174 51.655C9.46262 51.273 8.82606 51.7186 8.31682 52.3552C7.93489 52.8644 7.55296 53.5646 7.61661 54.1375C7.80758 55.347 8.57144 56.1745 9.71724 56.6838Z" fill="white"/>
<path d="M146.003 66.2315C147.213 66.2315 147.913 65.8496 148.55 64.7038C148.868 64.0673 149.059 63.3671 149.314 62.6668C149.632 61.7757 149.95 60.8208 150.205 59.9297C150.459 58.9112 150.65 57.8927 150.905 56.8742C151.096 56.174 151.287 55.5374 151.541 54.8372C151.86 53.8824 152.242 52.9276 152.496 51.9091C152.942 50.3177 153.324 48.6627 153.769 47.0076C154.215 45.3526 154.788 43.6339 155.297 41.9788C155.552 41.1513 155.743 40.3874 155.997 39.5599C156.316 38.6687 156.698 37.7776 156.952 36.8864C157.461 34.9767 157.971 33.0034 158.48 31.0938C158.735 30.0753 159.053 28.9931 159.244 27.911C159.562 26.2559 159.244 25.6194 158.034 25.0465C156.634 24.3463 155.488 24.4736 154.47 25.5557C153.578 26.5106 153.324 27.72 153.006 28.9931C152.433 31.3484 151.605 33.5763 150.905 35.9316C150.077 38.7961 149.377 41.6606 148.55 44.4614C147.722 47.3895 146.831 50.254 145.94 53.1185C145.749 53.8187 145.558 54.5189 145.367 55.2192C144.858 57.0652 144.285 58.9112 143.839 60.7572C143.585 61.7757 143.266 62.7941 143.203 63.8126C143.075 64.8948 144.794 66.2315 146.003 66.2315Z" fill="white"/>
<path d="M97.4343 31.0939C97.8799 32.749 98.1982 34.404 98.6438 35.9954C98.8984 36.9502 99.2803 37.7778 99.5986 38.7326C99.8532 39.4964 100.044 40.2603 100.235 41.0242C100.617 42.4882 100.999 44.016 101.445 45.4801C102.081 47.708 102.845 49.9359 103.482 52.1639C103.927 53.6916 104.309 55.283 104.755 56.8107C105.264 58.5931 105.837 60.3754 106.346 62.1578C106.792 63.6855 107.174 65.2769 108.892 65.9771C110.484 66.6773 112.457 65.5952 112.393 63.8765C112.33 62.476 111.948 61.012 111.629 59.6116C111.248 58.0838 110.611 56.5561 110.165 55.0284C109.529 52.7368 109.02 50.4452 108.383 48.1536C107.746 45.9256 106.919 43.7614 106.282 41.5971C105.646 39.3691 105.073 37.0775 104.5 34.8496C104.309 34.1494 104.054 33.3855 103.864 32.6853C103.545 31.5395 103.291 30.4574 102.909 29.3116C102.527 28.1658 102.208 26.9563 101.699 25.8742C101.19 24.792 99.4713 24.3465 98.1982 24.6011C97.307 24.792 96.4158 26.0015 96.2249 27.1473C96.3522 27.6565 96.5431 28.1658 96.6704 28.675C96.9251 29.5662 97.2433 30.3301 97.4343 31.0939Z" fill="white"/>
<path d="M139.574 160.506C139.447 159.551 139.256 158.66 139.129 157.705C138.938 156.432 138.874 155.095 138.683 153.822C138.619 153.567 138.301 153.186 138.11 153.186C137.346 153.249 136.582 153.377 135.819 153.504C134.227 153.758 132.699 154.204 131.108 154.268C128.88 154.395 126.652 154.331 124.424 154.268C124.042 154.268 123.597 154.268 123.215 154.204C121.56 153.949 119.841 153.695 118.186 153.313C117.486 153.186 117.231 153.504 117.167 154.077C117.04 155.159 116.977 156.177 116.913 157.259C116.849 158.405 117.04 159.551 116.786 160.633C116.467 161.779 116.977 162.097 117.868 162.225C118.95 162.416 120.096 162.67 121.178 162.861C123.469 163.243 125.761 163.625 128.053 163.943C128.053 163.88 128.053 163.88 128.053 163.816C128.88 163.752 129.644 163.816 130.471 163.689C133.018 163.243 135.5 162.798 138.046 162.352C139.447 162.225 139.702 161.97 139.574 160.506Z" fill="white"/>
<path d="M136.264 179.284C134.418 179.666 132.572 179.92 130.726 180.175C129.771 180.302 128.816 180.43 127.798 180.557C127.543 180.621 127.225 180.621 126.907 180.557C124.233 180.175 121.56 179.729 118.823 179.411C118.568 179.411 118.059 179.729 118.059 179.857C118.186 180.748 118.313 181.703 118.695 182.594C119.459 184.567 120.287 186.477 121.178 188.387C122.642 191.315 124.615 193.861 127.352 195.643C127.607 195.834 128.18 195.771 128.498 195.58C130.599 194.243 131.999 192.206 133.4 190.233C134.991 188.005 135.819 185.395 136.71 182.849C137.028 182.021 137.219 181.13 137.41 180.493C137.474 179.22 137.219 179.156 136.264 179.284Z" fill="white"/>
<path d="M169.301 57.6385C170.574 57.8931 171.402 57.1293 172.038 56.3018C173.757 54.0738 175.412 51.7822 177.067 49.4906C178.086 48.0902 178.977 46.6898 179.995 45.2894C181.587 43.1251 183.178 40.9608 184.77 38.8602C185.979 37.2051 187.252 35.6137 188.589 34.0224C189.48 32.9402 189.544 31.5398 188.589 30.585C187.57 29.5665 185.024 29.3119 184.324 30.203C182.86 32.049 181.396 33.9587 179.995 35.8047C177.258 39.5604 174.521 43.3161 171.72 47.0717C170.129 49.236 168.537 51.3366 167.01 53.4373C166.437 54.2011 166.055 55.156 166.628 55.8562C167.264 56.811 167.837 58.0205 169.301 57.6385Z" fill="white"/>
<path d="M68.6621 35.5495C70.5081 38.1593 72.4178 40.6419 74.2638 43.2518C77.192 47.2621 79.9928 51.336 82.9209 55.3463C83.6848 56.4284 84.4487 57.7015 86.3583 57.6379C88.077 57.7015 89.4138 56.1738 88.9046 54.3278C88.7772 53.8186 88.459 53.373 88.1407 52.9274C86.4856 50.6358 84.7669 48.4079 83.1756 46.1163C79.6745 41.1511 76.2371 36.186 72.7361 31.2209C71.6539 29.6932 69.426 28.611 67.5163 30.5207C66.7525 31.2846 66.6252 32.1121 67.1344 33.0669C67.6436 33.8944 68.1529 34.7219 68.6621 35.5495Z" fill="white"/>
<path d="M139.001 172.982C139.065 171.008 139.001 168.971 139.001 166.68C137.41 166.934 135.946 167.253 134.546 167.444C133.209 167.698 131.872 168.08 130.599 168.08C127.734 168.016 124.87 168.398 122.005 167.762C120.669 167.444 119.332 167.316 117.995 166.934C117.104 166.68 116.786 166.807 116.786 167.825C116.849 169.671 116.913 171.581 117.04 173.427C117.04 173.745 117.295 174.255 117.55 174.382C118.759 174.764 120.032 175.146 121.305 175.4C122.642 175.655 123.979 175.719 125.252 176.101C128.116 176.928 130.917 176.101 133.782 175.719C134.927 175.591 136.073 175.146 137.283 174.955C138.492 174.637 139.001 174.318 139.001 172.982Z" fill="white"/>
<path d="M131.745 110.218C132.126 110.281 132.445 110.281 132.827 110.345C134.163 110.663 134.482 110.409 135.182 109.263C136.391 107.417 137.474 105.443 139.001 103.852C140.147 102.643 141.802 101.879 143.33 101.178C145.303 100.351 147.34 99.8417 149.377 99.2052C150.968 98.6959 152.56 98.2503 154.151 97.8048C156.125 97.2955 158.098 96.9136 160.008 96.277C160.771 96.0224 161.472 95.3859 161.344 94.3674C161.344 93.1579 159.626 91.8211 158.48 92.1394C155.997 92.776 153.515 93.4125 150.968 94.1127C148.104 94.8766 145.176 95.5132 142.375 96.468C140.338 97.1682 138.237 98.123 136.519 99.3961C133.527 101.624 131.108 104.361 130.662 108.372C130.599 109.517 130.726 110.027 131.745 110.218Z" fill="white"/>
<path d="M95.5883 96.4055C97.8799 97.1058 100.172 97.6786 102.463 98.3152C105.264 99.0791 108.128 99.8429 110.929 100.734C115.131 102.007 118.122 104.808 120.159 108.691C121.432 111.046 120.987 111.11 123.597 110.346C124.488 110.091 124.87 109.455 124.87 108.627C124.87 107.8 124.743 106.909 124.361 106.208C121.942 101.307 117.995 98.1242 112.839 96.4692C110.866 95.8326 108.892 95.387 106.919 94.8778C105.264 94.4322 103.545 94.0503 101.89 93.6047C100.426 93.2228 98.9621 92.8408 97.498 92.4589C97.1161 92.3316 96.6705 92.2043 96.2885 92.1406C95.2701 92.2679 94.1879 92.9045 94.0606 93.6047C93.9333 94.8141 94.5062 96.0873 95.5883 96.4055Z" fill="white"/>
<path d="M123.469 149.938C125.697 150.129 127.925 149.874 130.153 150.002C132.699 150.129 134.991 149.238 137.41 148.856C138.619 148.665 138.683 148.347 138.237 147.201C137.728 145.801 137.283 144.4 136.901 142.936C136.582 141.663 136.2 141.472 134.927 141.663C132.699 142.045 130.408 142.427 128.116 142.427C125.188 142.427 122.26 142.045 119.141 141.79C118.695 143.827 118.186 146.055 117.677 148.283C118.313 148.538 118.886 148.729 119.395 148.92C120.796 149.302 122.133 149.811 123.469 149.938Z" fill="white"/>
<path d="M88.2679 153.186C89.6047 152.804 90.8778 152.231 91.8326 151.212C92.3419 150.64 92.6601 148.794 92.2146 148.284C91.1961 147.011 90.3049 145.484 88.2679 145.674C87.4404 145.802 86.4219 145.738 85.7217 146.12C83.6211 147.266 83.0482 149.048 84.0667 151.149C84.6396 152.231 87.4404 153.44 88.2679 153.186Z" fill="white"/>
<path d="M171.147 151.403C171.911 150.512 172.102 149.43 171.72 148.475C170.956 146.693 169.492 145.674 167.392 145.547C166.628 145.801 165.737 145.865 165.036 146.247C163.063 147.266 162.49 149.239 163.445 150.767C164.973 153.313 168.792 154.14 171.147 151.403Z" fill="white"/>
<path d="M111.248 142.618C111.12 142.554 111.057 142.427 110.929 142.363C109.211 143.955 107.492 145.61 105.646 147.328C106.919 147.901 107.937 148.411 109.083 148.92C109.72 146.883 110.484 144.782 111.248 142.618Z" fill="white"/>
<path d="M153.833 151.211C153.642 151.02 153.133 150.893 152.815 151.02C151.732 151.466 150.65 152.039 149.505 152.548C152.624 156.304 155.997 159.423 159.689 162.224C161.726 163.751 164.082 164.642 166.564 165.343C168.728 165.916 170.829 165.788 172.93 165.661C174.903 165.534 176.876 164.833 178.786 164.197C182.096 163.051 185.024 161.141 187.443 158.532C189.735 156.049 191.963 153.439 193.172 150.256C193.872 148.283 194.7 146.31 194.573 144.018C194.509 143 194.191 142.809 193.236 142.872C191.008 143.063 188.716 143.191 186.425 143.318C185.215 143.382 184.706 143.827 184.579 145.037C184.324 147.456 183.496 149.747 182.16 151.784C180.314 154.585 177.895 156.877 174.712 157.895C171.72 158.913 168.601 159.423 165.291 158.659C161.854 157.895 159.116 156.24 156.634 153.948C155.743 153.185 154.788 152.166 153.833 151.211Z" fill="white"/>
<path d="M144.094 142.618C144.858 144.719 145.558 146.883 146.258 148.92C147.404 148.411 148.422 147.901 149.695 147.328C147.849 145.546 146.131 143.955 144.412 142.363C144.285 142.427 144.157 142.554 144.094 142.618Z" fill="white"/>
</svg>
