<svg width="403" height="353" viewBox="0 0 403 353" fill="none" xmlns="http://www.w3.org/2000/svg">
<path d="M365.8 181.7C363.9 182.8 362 183.7 360.3 185C356.6 187.8 353.1 191.1 349.2 193.6C346.8 195.2 343.8 196 341 196.8C337.7 197.7 334.4 198.4 331 199C327.7 199.5 324.3 199.6 320.9 200C320.3 200.1 319.6 200.2 319.1 200.6C318.7 200.9 318.3 201.5 318.1 202C317.4 204.6 316.9 207.3 316 209.9C315.1 212.6 314 215.2 312.7 217.7C310.8 221.1 308.8 224.4 306.5 227.5C304.6 230 302 232 299.7 234.2C296.3 237.4 292.3 239.7 287.8 241.2C284.7 242.2 281.6 243 278.4 243.6C275.3 244.2 272.1 244.7 268.9 244.9C267 245 265 244.6 263.1 244.2C259.7 243.5 256.2 243 253.1 241.7C248.3 239.8 243.9 236.9 240 233.4C237.3 231 234.6 228.5 231.7 225.9C231.6 226.4 231.5 226.6 231.5 226.8C231.7 236.2 231.1 245.5 229.1 254.8C228.2 258.9 227.1 262.8 225.6 266.7C223.8 271.2 222.1 275.8 219.1 279.7C215.3 284.7 211.5 289.8 205.2 292C202.9 292.8 200.6 292.9 198.3 292.1C194.1 290.7 190.9 287.8 188 284.6C184.3 280.5 181.3 275.9 179.1 270.8C177.1 266.2 175.2 261.5 174.6 256.4C174.4 254.9 174 253.4 173.7 252C173.2 249.7 172.3 247.5 172.1 245.2C171.7 240.3 171.5 235.3 171.4 230.4C171.4 228.7 171.7 227 171.8 224.9C170.9 225.7 170.2 226.1 169.6 226.7C168 228.3 166.5 230 164.8 231.6C162.7 233.6 160.6 235.8 158.2 237.4C153.7 240.3 149 243.1 143.5 243.8C140.5 244.2 137.4 245.1 134.4 245.1C130.9 245.1 127.4 244.4 123.9 243.7C120.6 243 117.2 242.4 114.1 241.1C104.8 237.2 97.5998 230.6 92.0998 222.2C89.1998 217.8 87.3998 212.9 85.6998 208C85.1998 206.6 84.6998 205.1 84.6998 203.6C84.5998 201.1 83.8998 200.2 81.3998 200.1C79.8998 200 78.3998 200.2 76.8998 199.9C72.9998 199.3 69.1998 198.5 65.3998 197.9C61.2998 197.3 57.4998 195.9 54.0998 193.7C50.5998 191.4 47.5998 188.5 44.1998 186.1C41.2998 184.1 38.0998 182.4 34.9998 180.6C33.3998 179.7 31.7998 178.8 29.7998 177.7C29.7998 180.1 29.7998 182.1 29.7998 184.1C29.7998 219.4 29.7998 254.8 29.7998 290.1C29.7998 291.7 29.7998 293.2 29.8998 294.8C29.8998 295.3 30.1998 296 30.5998 296.1C31.9998 296.7 33.3998 297.2 34.7998 297.6C40.0998 299.3 45.3998 300.9 50.5998 302.7C54.5998 304 58.4998 305.4 62.3998 306.7C66.5998 308.1 70.8998 309.3 75.0998 310.7C80.0998 312.3 84.9998 314.1 89.8998 315.7C95.4998 317.6 101.2 319.3 106.8 321.1C113.1 323.2 119.4 325.5 125.7 327.6C133 330 140.2 332.3 147.5 334.7C154 336.8 160.6 339.1 167.1 341.2C173.6 343.3 180.1 345.3 186.6 347.5C190.7 348.8 194.7 350.4 198.8 351.7C199.9 352 201.2 352.2 202.2 352C205.7 351.1 209.2 349.9 212.6 348.8C215.1 348 217.6 347.2 220.1 346.4C223.7 345.2 227.3 344 230.9 342.8C233.5 342 236.1 341.2 238.7 340.3C241.5 339.4 244.2 338.4 247 337.5C250.3 336.4 253.7 335.4 257.1 334.3C261 333 264.8 331.5 268.7 330.2C273.6 328.6 278.7 327.1 283.6 325.5C287.1 324.3 290.6 323 294.2 321.8C298.2 320.5 302.2 319.2 306.2 317.9C309.8 316.7 313.4 315.5 317 314.3C320.4 313.2 323.9 312 327.3 310.9C331 309.7 334.7 308.4 338.5 307.2C341.5 306.2 344.5 305.4 347.5 304.4C352.5 302.8 357.4 301 362.4 299.4C365 298.6 367.6 297.9 370.2 297C371.6 296.5 372.5 295.8 372.5 294C372.5 257.1 372.5 220.1 372.5 183.2C372.5 181.7 372.5 180.1 372.5 178.3C369.9 179.3 367.8 180.5 365.8 181.7Z" fill="black"/>
<path d="M401.8 99.3002C401.7 99.0002 401.4 98.6002 401.1 98.4002C398.3 95.4002 394.5 95.1002 390.8 94.7002C386.7 94.2002 382.6 94.3002 378.5 94.3002C377.3 94.3002 376.2 94.6002 375 94.7002C371.4 95.0002 367.7 95.1002 364.1 95.6002C360.3 96.1002 356.6 96.9002 352.9 97.7002C348.5 98.6002 344 99.6002 339.6 100.7C335.3 101.8 331.1 103.1 326.9 104.6C321.6 106.4 316.4 108.2 311.2 110.4C303.6 113.5 296.1 116.8 288.6 120.2C281.7 123.3 274.9 126.6 268.1 130C260.9 133.6 253.8 137.3 246.7 141.1C239.1 145.2 231.5 149.5 223.9 153.7C223 154.2 222.6 154.9 223.5 155.9C225 157.7 226.5 159.5 227.8 161.4C228.4 162.3 228.9 162.6 229.9 162.4C232.5 161.8 235.1 161.3 237.7 160.8C239.7 160.4 241.7 159.9 243.7 159.4C246.2 158.7 248.7 157.9 251.3 157.3C254.9 156.4 258.6 155.8 262.2 154.8C266.4 153.7 270.7 152.6 274.8 151.2C280.6 149.2 286.3 147 292 144.7C296.5 142.9 300.9 140.7 305.5 139.3C310.2 137.9 315.1 136.9 320 136.3C324 135.7 328 135.6 332 135.7C335.8 135.8 339.7 136.2 343.4 136.9C348 137.8 352.6 138.8 357 140.3C363.9 142.7 370.6 145.8 377.9 147.1C380.7 147.6 383.6 147.9 386.4 148.2C386.8 148.2 387.5 148.2 387.7 147.9C388.7 146.7 389.7 145.4 390.4 144C392.9 139.1 395.5 134.2 397.6 129.2C399.3 125.4 400.6 121.3 401.6 117.3C402.4 114.2 402.5 110.9 402.9 107.2C402.7 104.6 402.3 101.9 401.8 99.3002Z" fill="black"/>
<path d="M48.5999 139C52.3999 137.9 56.1999 137 60.0999 136.5C65.6999 135.8 71.2999 135.3 76.8999 135.4C84.1999 135.5 91.2999 136.9 98.1999 139.5C103.7 141.6 109.2 143.9 114.7 146.1C118.4 147.5 122 148.9 125.7 150.2C128.6 151.2 131.5 152.1 134.5 152.9C136.6 153.5 138.8 154 141 154.6C143.6 155.2 146.1 155.8 148.7 156.4C152.2 157.3 155.6 158.2 159.1 159.1C162 159.8 164.8 160.6 167.7 161.2C169.7 161.6 171.7 161.9 173.8 162.1C174.3 162.2 175 161.8 175.4 161.4C176.8 159.7 178 157.9 179.5 156.2C180.2 155.4 180.1 155 179.3 154.5C177.7 153.4 176.3 152 174.6 151C168.5 147.5 162.3 144 156 140.7C148.5 136.7 141 132.9 133.3 129.2C124.2 124.8 115 120.5 105.7 116.3C99.8999 113.7 93.9999 111.3 88.0999 108.9C84.1999 107.3 80.1999 105.8 76.1999 104.4C72.3999 103.1 68.5999 102 64.7999 100.9C61.6999 100 58.5999 99.1002 55.3999 98.4002C52.4999 97.7002 49.4999 97.4002 46.5999 96.8002C43.8999 96.3002 41.2999 95.7002 38.5999 95.4002C33.6999 94.8002 28.7999 94.4002 23.8999 94.1002C21.5999 93.9002 19.2999 94.0002 16.9999 94.2002C13.9999 94.5002 10.9999 94.9002 7.99993 95.4002C6.19993 95.7002 4.39992 96.2002 2.89992 97.2002C1.89992 97.9002 0.999925 99.5002 0.899925 100.8C0.599925 103.5 0.799926 106.2 0.799926 108.9H0.899925C0.899925 111 0.599925 113.1 0.999925 115.1C1.59993 118.1 2.49993 121 3.39992 123.9C4.19992 126.5 4.99993 129.3 6.19993 131.7C8.59993 136.5 11.1999 141.2 13.8999 145.8C14.4999 146.8 15.6999 147.8 16.7999 148.2C17.6999 148.5 18.8999 148 19.9999 147.7C25.7999 146.2 31.5999 144.7 37.2999 143C41.1999 141.8 44.7999 140.1 48.5999 139Z" fill="black"/>
<path d="M54.6999 182.1C59.6999 186.4 65.2 189.4 71.9 189.9C73.8 190 75.5999 190 77.5 190C77.7999 190 78.2 190.1 78.5 190.1C79.7 190.3 80.7999 190.6 82 190.7C88.2999 190.9 94.6 191 100.8 191.2C102.6 191.2 104.5 191.3 106.3 191.5C110.5 191.9 114.7 192.7 118.9 192.8C124.1 193 129.2 192.8 134.4 192.5C137.6 192.3 140.8 191.8 143.9 191.3C146.8 190.8 149.7 190 152.5 189.2C155.3 188.5 158 187.7 160.7 186.8C164.3 185.6 167.8 184.4 171.3 183.1C172.1 182.8 173.3 182.4 172.6 181.4C170.9 178.8 170.9 175.9 170.8 173C170.8 171.6 170.1 170.9 169 170.6C167.7 170.2 166.4 170 165.1 169.6C161.5 168.7 157.9 167.7 154.2 166.8C150.8 165.9 147.4 165.2 144 164.3C141.4 163.7 138.7 163 136.1 162.3C133.4 161.6 130.7 161.1 128 160.4C125.2 159.6 122.3 158.8 119.5 157.8C116.3 156.7 113.2 155.6 110.1 154.3C105.1 152.2 100.2 149.8 95.0999 147.9C91.5999 146.6 88 145.7 84.3 144.9C80.8 144.2 77.1999 143.7 73.6999 143.6C70.8999 143.5 68.1 143.9 65.3 144.3C62.2 144.7 59.0999 145.1 56.0999 146C52.2999 147.2 48.5999 148.8 44.7999 150.3C37.9 152.9 30.9 155.2 23.2 156.7C23.7 157.5 23.9 158.4 24.5 159C30.6 165.4 37.5999 170.5 45.0999 175.2C48.4999 177.1 51.6999 179.5 54.6999 182.1Z" fill="black"/>
<path d="M378.2 156.3C375.5 155.8 372.8 155.4 370.2 154.6C364.6 152.7 359.1 150.3 353.5 148.4C349.1 146.9 344.7 145.4 340.2 144.4C336.9 143.7 333.4 143.7 329.6 143.4C326.5 143.8 323 143.9 319.6 144.6C316.2 145.2 312.7 146.1 309.5 147.3C305.1 148.9 300.8 150.8 296.5 152.7C293.6 153.9 290.9 155.3 288 156.3C284.7 157.5 281.2 158.5 277.8 159.5C274.4 160.5 271.1 161.5 267.7 162.3C265.1 162.9 262.4 163.2 259.8 163.9C255.3 165 250.8 166.3 246.3 167.5C242.2 168.5 238.2 169.6 234.1 170.5C232.5 170.9 232 172.1 232.3 173.3C232.9 175.8 231.9 178 231.2 180.1C230.6 182.2 230.4 182.4 232.6 183.2C233.1 183.4 233.6 183.7 234.2 183.9C239.3 185.5 244.4 187.3 249.5 188.7C254 190 258.5 191.2 263 191.9C267.5 192.6 272.1 192.7 276.7 192.9C279 193 281.3 192.8 283.6 192.7C287.4 192.5 291.2 192.3 295 192C299 191.7 302.9 190.9 306.9 190.7C313.4 190.4 319.9 190.4 326.5 190.1C329.5 190 332.5 189.6 335.5 189.2C339.2 188.6 342.5 186.9 345.5 184.7C349.6 181.6 353.5 178.3 357.6 175.2C359.9 173.5 362.4 172.1 364.7 170.4C368.2 167.7 371.5 164.7 374.8 161.9C376.2 160.7 377.7 159.5 379 158.1C379.6 157.3 379.7 156.5 378.2 156.3Z" fill="black"/>
<path d="M219.3 168.7C218.6 164.8 216.3 161.9 213.5 159.4C210.5 156.7 206.6 155.8 202.7 155.6C197.2 155.3 192.2 156.8 188.2 160.8C185.7 163.3 184.1 166.4 183.6 169.8C183.1 173.3 183 176.9 184.3 180.5C185.2 183.1 185.6 185.9 186.3 188.6C186.7 189.9 187.3 191 189 190.9C189.4 190.9 189.8 191.1 190.2 191.2C193.2 191.8 196.2 192.7 199.3 192.9C202.4 193.1 205.5 192.7 208.5 192.2C210.8 191.9 213.1 191 215.4 190.4C217.2 189.9 217.5 188.6 217.6 187C217.7 185.4 218.1 183.8 218.4 182.2C219 179.5 219.8 176.8 220.5 174.1C220.1 172.1 219.6 170.4 219.3 168.7Z" fill="black"/>
<path d="M115.4 214C113.3 210.8 112 207.2 111.6 203.4C111.4 201.5 110.7 200.8 108.7 200.7C105.1 200.5 101.6 200.3 97.9999 200C96.4999 199.9 95.9999 200.2 95.8999 201.8C95.6999 205.3 96.8999 208.4 98.0999 211.6C99.9999 216.7 103.4 220.8 107.1 224.6C110.9 228.7 115.5 231.7 120.7 233.5C123.7 234.5 126.8 235.6 129.9 235.8C133.2 236 136.5 236.2 139.9 235.3C143.8 234.2 147.5 232.8 150.7 230.4C156.5 226 161.8 221.1 166.7 215.2C164.9 214.3 163.2 213.5 161.5 212.8C161.1 212.6 160.3 212.8 159.9 213.1C158.3 214.5 156.9 216.1 155.3 217.6C151.4 221.2 147 223.8 141.7 225C136.5 226.2 131.7 225.4 126.9 223.8C122.1 221.9 118.3 218.3 115.4 214Z" fill="black"/>
<path d="M277.5 84.7997C276.4 85.7997 275.8 86.9997 276.4 88.4997C277.1 90.0997 279.1 91.5997 280.7 91.8997C281.8 91.2997 283.1 90.9997 284 90.0997C286.4 87.9997 288.6 85.6997 290.9 83.4997C297.2 77.7997 303.6 72.1997 309.9 66.3997C314.8 61.8997 319.6 57.1997 324.4 52.5997C329.5 47.7997 334.7 43.1997 339.7 38.3997C340.3 37.8997 340.7 36.7997 340.6 35.9997C340.4 32.9997 336.7 30.9997 334.2 32.6997C331.8 34.2997 329.6 36.3997 327.4 38.3997C322.7 42.6997 318.1 46.9997 313.4 51.2997C306.8 57.2997 300.1 63.2997 293.5 69.2997C288.2 74.4997 282.9 79.6997 277.5 84.7997Z" fill="black"/>
<path d="M77.3 51.2995C83.7 57.1995 90.1 63.0995 96.5 68.9995C102.2 74.2995 107.8 79.5995 113.5 84.9995C114.4 85.8995 115.2 86.7995 116.2 87.6995C117.4 88.8995 118.7 90.0995 120 91.0995C121.7 92.2995 124.7 91.2995 126.3 89.1995C127.1 88.1995 126.6 86.0995 125.3 84.7995C121.6 81.1995 118 77.5995 114.3 73.9995C107.6 67.5995 100.8 61.2995 94 54.9995C86.9 48.4995 80 41.8995 73 35.3995C71.4 33.8995 69.7 32.0995 67.3 32.2995C65.5 32.1995 63.5 33.0995 63 34.1995C62.3 35.6995 62.7 37.6995 64.1 38.9995C68.5 43.0995 72.9 47.1995 77.3 51.2995Z" fill="black"/>
<path d="M318 87.7002C316.4 88.5002 314.7 89.2002 313.2 90.2002C311.8 91.0002 311.3 92.9002 312 94.5002C312.6 95.9002 313.7 96.9002 315.5 97.0002C316.3 96.9002 317.3 96.9002 318.1 96.6002C323.1 94.4002 328 92.1002 332.9 89.8002C336.9 87.9002 340.9 85.9002 344.9 84.1002C351.8 80.9002 358.8 77.8002 365.7 74.7002C373.4 71.1002 381.1 67.5002 388.8 63.9002C390.2 63.3002 391.6 60.8002 391.2 59.7002C390.6 58.0002 387.1 55.9002 385.6 56.5002C382.6 57.8002 379.7 59.0002 376.7 60.4002C370.6 63.3002 364.5 66.2002 358.4 69.1002C350.2 72.9002 342.1 76.7002 333.9 80.5002C328.6 82.8002 323.3 85.3002 318 87.7002Z" fill="black"/>
<path d="M197.5 71.9999C197.5 75.0999 198.7 76.5999 201.7 77.1999C203.6 77.5999 206 76.2 206.2 74.2999C206.5 71.8999 206.4 69.4999 206.4 67.0999C206.4 52.0999 206.4 37.2 206.5 22.2C206.5 17.1 206.4 12 206.9 6.99995C207.3 3.39995 204.7 -0.20005 200.6 0.59995C199.4 0.79995 197.5 2.59995 197.5 3.79995C197.5 5.19995 197.5 6.59995 197.5 7.89995C197.5 18.0999 197.5 28.3999 197.5 38.5999C197.5 49.7999 197.5 60.8999 197.5 71.9999Z" fill="black"/>
<path d="M15.9999 64.4003C19.0999 65.8003 22.1999 67.3003 25.2999 68.7003C30.9999 71.3003 36.7999 73.9003 42.4999 76.6003C49.8999 80.1003 57.2999 83.6003 64.6999 87.1003C69.7999 89.5003 74.7999 92.1003 79.8999 94.4003C82.0999 95.4003 84.3999 96.3003 86.7999 96.8003C89.2999 97.4003 91.5999 95.6003 91.5999 94.2003C91.7999 91.3003 90.0999 90.4003 88.4999 89.6003C82.3999 86.6003 76.1999 83.7003 70.0999 80.8003C63.3999 77.6003 56.5999 74.4003 49.8999 71.2003C42.3999 67.7003 34.9 64.3003 27.4 60.9003C24 59.4003 20.4999 58.0003 17.0999 56.5003C15.5999 55.9003 14.5999 56.6003 13.7999 57.6003C13.1999 58.4003 12.5999 59.5003 12.6999 60.4003C12.9999 62.3003 14.1999 63.6003 15.9999 64.4003Z" fill="black"/>
<path d="M230.1 79.4002C232 79.4002 233.1 78.8002 234.1 77.0002C234.6 76.0002 234.9 74.9002 235.3 73.8002C235.8 72.4002 236.3 70.9002 236.7 69.5002C237.1 67.9002 237.4 66.3002 237.8 64.7002C238.1 63.6002 238.4 62.6002 238.8 61.5002C239.3 60.0002 239.9 58.5002 240.3 56.9002C241 54.4002 241.6 51.8002 242.3 49.2002C243 46.6002 243.9 43.9002 244.7 41.3002C245.1 40.0002 245.4 38.8002 245.8 37.5002C246.3 36.1002 246.9 34.7002 247.3 33.3002C248.1 30.3002 248.9 27.2002 249.7 24.2002C250.1 22.6002 250.6 20.9002 250.9 19.2002C251.4 16.6002 250.9 15.6002 249 14.7002C246.8 13.6002 245 13.8002 243.4 15.5002C242 17.0002 241.6 18.9002 241.1 20.9002C240.2 24.6002 238.9 28.1002 237.8 31.8002C236.5 36.3002 235.4 40.8002 234.1 45.2002C232.8 49.8002 231.4 54.3002 230 58.8002C229.7 59.9002 229.4 61.0002 229.1 62.1002C228.3 65.0002 227.4 67.9002 226.7 70.8002C226.3 72.4002 225.8 74.0002 225.7 75.6002C225.5 77.3002 228.2 79.4002 230.1 79.4002Z" fill="black"/>
<path d="M153.8 24.2003C154.5 26.8003 155 29.4003 155.7 31.9003C156.1 33.4003 156.7 34.7003 157.2 36.2003C157.6 37.4003 157.9 38.6003 158.2 39.8003C158.8 42.1003 159.4 44.5003 160.1 46.8003C161.1 50.3003 162.3 53.8003 163.3 57.3003C164 59.7003 164.6 62.2003 165.3 64.6003C166.1 67.4003 167 70.2003 167.8 73.0003C168.5 75.4003 169.1 77.9003 171.8 79.0003C174.3 80.1003 177.4 78.4003 177.3 75.7003C177.2 73.5003 176.6 71.2003 176.1 69.0003C175.5 66.6003 174.5 64.2003 173.8 61.8003C172.8 58.2003 172 54.6003 171 51.0003C170 47.5003 168.7 44.1003 167.7 40.7003C166.7 37.2003 165.8 33.6003 164.9 30.1003C164.6 29.0003 164.2 27.8003 163.9 26.7003C163.4 24.9003 163 23.2003 162.4 21.4003C161.8 19.6003 161.3 17.7003 160.5 16.0003C159.7 14.3003 157 13.6003 155 14.0003C153.6 14.3003 152.2 16.2003 151.9 18.0003C152.1 18.8003 152.4 19.6003 152.6 20.4003C153 21.8003 153.5 23.0003 153.8 24.2003Z" fill="black"/>
<path d="M220 227.5C219.8 226 219.5 224.6 219.3 223.1C219 221.1 218.9 219 218.6 217C218.5 216.6 218 216 217.7 216C216.5 216.1 215.3 216.3 214.1 216.5C211.6 216.9 209.2 217.6 206.7 217.7C203.2 217.9 199.7 217.8 196.2 217.7C195.6 217.7 194.9 217.7 194.3 217.6C191.7 217.2 189 216.8 186.4 216.2C185.3 216 184.9 216.5 184.8 217.4C184.6 219.1 184.5 220.7 184.4 222.4C184.3 224.2 184.6 226 184.2 227.7C183.7 229.5 184.5 230 185.9 230.2C187.6 230.5 189.4 230.9 191.1 231.2C194.7 231.8 198.3 232.4 201.9 232.9C201.9 232.8 201.9 232.8 201.9 232.7C203.2 232.6 204.4 232.7 205.7 232.5C209.7 231.8 213.6 231.1 217.6 230.4C219.8 230.2 220.2 229.8 220 227.5Z" fill="black"/>
<path d="M214.8 257C211.9 257.6 209 258 206.1 258.4C204.6 258.6 203.1 258.8 201.5 259C201.1 259.1 200.6 259.1 200.1 259C195.9 258.4 191.7 257.7 187.4 257.2C187 257.2 186.2 257.7 186.2 257.9C186.4 259.3 186.6 260.8 187.2 262.2C188.4 265.3 189.7 268.3 191.1 271.3C193.4 275.9 196.5 279.9 200.8 282.7C201.2 283 202.1 282.9 202.6 282.6C205.9 280.5 208.1 277.3 210.3 274.2C212.8 270.7 214.1 266.6 215.5 262.6C216 261.3 216.3 259.9 216.6 258.9C216.7 256.9 216.3 256.8 214.8 257Z" fill="black"/>
<path d="M266.7 65.9002C268.7 66.3003 270 65.1003 271 63.8003C273.7 60.3003 276.3 56.7002 278.9 53.1002C280.5 50.9002 281.9 48.7002 283.5 46.5002C286 43.1002 288.5 39.7002 291 36.4002C292.9 33.8002 294.9 31.3002 297 28.8002C298.4 27.1002 298.5 24.9002 297 23.4002C295.4 21.8002 291.4 21.4002 290.3 22.8002C288 25.7002 285.7 28.7002 283.5 31.6002C279.2 37.5002 274.9 43.4002 270.5 49.3002C268 52.7002 265.5 56.0003 263.1 59.3003C262.2 60.5003 261.6 62.0002 262.5 63.1002C263.5 64.6002 264.4 66.5002 266.7 65.9002Z" fill="black"/>
<path d="M108.6 31.1997C111.5 35.2997 114.5 39.1997 117.4 43.2997C122 49.5997 126.4 55.9997 131 62.2997C132.2 63.9997 133.4 65.9997 136.4 65.8997C139.1 65.9997 141.2 63.5997 140.4 60.6997C140.2 59.8997 139.7 59.1997 139.2 58.4997C136.6 54.8997 133.9 51.3997 131.4 47.7997C125.9 39.9997 120.5 32.1997 115 24.3997C113.3 21.9997 109.8 20.2997 106.8 23.2997C105.6 24.4997 105.4 25.7997 106.2 27.2997C107 28.5997 107.8 29.8997 108.6 31.1997Z" fill="black"/>
<path d="M219.1 247.1C219.2 244 219.1 240.8 219.1 237.2C216.6 237.6 214.3 238.1 212.1 238.4C210 238.8 207.9 239.4 205.9 239.4C201.4 239.3 196.9 239.9 192.4 238.9C190.3 238.4 188.2 238.2 186.1 237.6C184.7 237.2 184.2 237.4 184.2 239C184.3 241.9 184.4 244.9 184.6 247.8C184.6 248.3 185 249.1 185.4 249.3C187.3 249.9 189.3 250.5 191.3 250.9C193.4 251.3 195.5 251.4 197.5 252C202 253.3 206.4 252 210.9 251.4C212.7 251.2 214.5 250.5 216.4 250.2C218.3 249.7 219.1 249.2 219.1 247.1Z" fill="black"/>
<path d="M207.7 148.5C208.3 148.6 208.8 148.6 209.4 148.7C211.5 149.2 212 148.8 213.1 147C215 144.1 216.7 141 219.1 138.5C220.9 136.6 223.5 135.4 225.9 134.3C229 133 232.2 132.2 235.4 131.2C237.9 130.4 240.4 129.7 242.9 129C246 128.2 249.1 127.6 252.1 126.6C253.3 126.2 254.4 125.2 254.2 123.6C254.2 121.7 251.5 119.6 249.7 120.1C245.8 121.1 241.9 122.1 237.9 123.2C233.4 124.4 228.8 125.4 224.4 126.9C221.2 128 217.9 129.5 215.2 131.5C210.5 135 206.7 139.3 206 145.6C205.9 147.4 206.1 148.2 207.7 148.5Z" fill="black"/>
<path d="M150.9 126.8C154.5 127.9 158.1 128.8 161.7 129.8C166.1 131 170.6 132.2 175 133.6C181.6 135.6 186.3 140 189.5 146.1C191.5 149.8 190.8 149.9 194.9 148.7C196.3 148.3 196.9 147.3 196.9 146C196.9 144.7 196.7 143.3 196.1 142.2C192.3 134.5 186.1 129.5 178 126.9C174.9 125.9 171.8 125.2 168.7 124.4C166.1 123.7 163.4 123.1 160.8 122.4C158.5 121.8 156.2 121.2 153.9 120.6C153.3 120.4 152.6 120.2 152 120.1C150.4 120.3 148.7 121.3 148.5 122.4C148.3 124.3 149.2 126.3 150.9 126.8Z" fill="black"/>
<path d="M194.7 210.9C198.2 211.2 201.7 210.8 205.2 211C209.2 211.2 212.8 209.8 216.6 209.2C218.5 208.9 218.6 208.4 217.9 206.6C217.1 204.4 216.4 202.2 215.8 199.9C215.3 197.9 214.7 197.6 212.7 197.9C209.2 198.5 205.6 199.1 202 199.1C197.4 199.1 192.8 198.5 187.9 198.1C187.2 201.3 186.4 204.8 185.6 208.3C186.6 208.7 187.5 209 188.3 209.3C190.5 209.9 192.6 210.7 194.7 210.9Z" fill="black"/>
<path d="M139.4 216C141.5 215.4 143.5 214.5 145 212.9C145.8 212 146.3 209.1 145.6 208.3C144 206.3 142.6 203.9 139.4 204.2C138.1 204.4 136.5 204.3 135.4 204.9C132.1 206.7 131.2 209.5 132.8 212.8C133.7 214.5 138.1 216.4 139.4 216Z" fill="black"/>
<path d="M269.6 213.2C270.8 211.8 271.1 210.1 270.5 208.6C269.3 205.8 267 204.2 263.7 204C262.5 204.4 261.1 204.5 260 205.1C256.9 206.7 256 209.8 257.5 212.2C259.9 216.2 265.9 217.5 269.6 213.2Z" fill="black"/>
<path d="M175.5 199.4C175.3 199.3 175.2 199.1 175 199C172.3 201.5 169.6 204.1 166.7 206.8C168.7 207.7 170.3 208.5 172.1 209.3C173.1 206.1 174.3 202.8 175.5 199.4Z" fill="black"/>
<path d="M242.4 212.9C242.1 212.6 241.3 212.4 240.8 212.6C239.1 213.3 237.4 214.2 235.6 215C240.5 220.9 245.8 225.8 251.6 230.2C254.8 232.6 258.5 234 262.4 235.1C265.8 236 269.1 235.8 272.4 235.6C275.5 235.4 278.6 234.3 281.6 233.3C286.8 231.5 291.4 228.5 295.2 224.4C298.8 220.5 302.3 216.4 304.2 211.4C305.3 208.3 306.6 205.2 306.4 201.6C306.3 200 305.8 199.7 304.3 199.8C300.8 200.1 297.2 200.3 293.6 200.5C291.7 200.6 290.9 201.3 290.7 203.2C290.3 207 289 210.6 286.9 213.8C284 218.2 280.2 221.8 275.2 223.4C270.5 225 265.6 225.8 260.4 224.6C255 223.4 250.7 220.8 246.8 217.2C245.4 216 243.9 214.4 242.4 212.9Z" fill="black"/>
<path d="M227.1 199.4C228.3 202.7 229.4 206.1 230.5 209.3C232.3 208.5 233.9 207.7 235.9 206.8C233 204 230.3 201.5 227.6 199C227.4 199.1 227.2 199.3 227.1 199.4Z" fill="black"/>
</svg>
